# xmcd
#
# Track frame offsets: 
#        150
#        35218
#        53894
#        66199
#        87660
#        101324
#
# Disc length: 1516 seconds
#
# Revision: 0
# Processed by: cddbd v1.5.2PL0 Copyright (c) Steve Scherf et al.
# Submitted via: ExactAudioCopyFreeDBPlugin 1.0
#
DISCID=5005ea06
DTITLE=Anders Osborne - Three Free Amigos
DYEAR=2013
DGENRE=Blues
TTITLE0=Three Free Amigos
TTITLE1=Marmalade
TTITLE2=Jealous Love
TTITLE3=It's Gonna Be Ok
TTITLE4=Never Is A Real Long Time
TTITLE5=We Move On
EXTD=
EXTT0=
EXTT1=
EXTT2=
EXTT3=
EXTT4=
EXTT5=
PLAYORDER=
